HIERARCHY
ROOT Hips
{
	OFFSET 0.000000 0.000000 0.000000
	CHANNELS 6 Xposition Yposition Zposition Zrotation Yrotation Xrotation 
	JOINT LHipJoint
	{
		OFFSET 0.000000 0.000000 0.000000
		CHANNELS 3 Zrotation Yrotation Xrotation
		JOINT LeftUpLeg
		{
			OFFSET 1.363060 -1.794630 0.839290
			CHANNELS 3 Zrotation Yrotation Xrotation
			JOINT LeftLeg
			{
				OFFSET 2.448110 -6.726130 0.000000
				CHANNELS 3 Zrotation Yrotation Xrotation
				JOINT LeftFoot
				{
					OFFSET 2.562200 -7.039590 0.000000
					CHANNELS 3 Zrotation Yrotation Xrotation
					JOINT LeftToeBase
					{
						OFFSET 0.157640 -0.433110 2.322550
						CHANNELS 3 Zrotation Yrotation Xrotation
						End Site
						{
							OFFSET 0.000000 0.000000 0.000000
						}
					}
				}
			}
		}
	}
	JOINT RHipJoint
	{
		OFFSET 0.000000 0.000000 0.000000
		CHANNELS 3 Zrotation Yrotation Xrotation
		JOINT RightUpLeg
		{
			OFFSET -1.305520 -1.794630 0.839290
			CHANNELS 3 Zrotation Yrotation Xrotation
			JOINT RightLeg
			{
				OFFSET -2.542530 -6.985550 0.000000
				CHANNELS 3 Zrotation Yrotation Xrotation
				JOINT RightFoot
				{
					OFFSET -2.568260 -7.056230 0.000000
					CHANNELS 3 Zrotation Yrotation Xrotation
					JOINT RightToeBase
					{
						OFFSET -0.164730 -0.452590 2.363150
						CHANNELS 3 Zrotation Yrotation Xrotation
						End Site
						{
							OFFSET 0.000000 0.000000 0.000000
						}
					}
				}
			}
		}
	}
	JOINT LowerBack
	{
		OFFSET 0.000000 0.000000 0.000000
		CHANNELS 3 Zrotation Yrotation Xrotation
		JOINT Spine
		{
			OFFSET 0.028270 2.035590 -0.193380
			CHANNELS 3 Zrotation Yrotation Xrotation
			JOINT Spine1
			{
				OFFSET 0.056720 2.048850 -0.042750
				CHANNELS 3 Zrotation Yrotation Xrotation
				JOINT Neck
				{
					OFFSET 0.000000 0.000000 0.000000
					CHANNELS 3 Zrotation Yrotation Xrotation
					JOINT Neck1
					{
						OFFSET -0.054170 1.746240 0.172020
						CHANNELS 3 Zrotation Yrotation Xrotation
						JOINT Head
						{
							OFFSET 0.104070 1.761360 -0.123970
							CHANNELS 3 Zrotation Yrotation Xrotation
							End Site
							{
								OFFSET 0.000000 0.000000 0.000000
							}
						}
					}
				}
				JOINT LeftShoulder
				{
					OFFSET 0.000000 0.000000 0.000000
					CHANNELS 3 Zrotation Yrotation Xrotation
					JOINT LeftArm
					{
						OFFSET 3.362410 1.200890 -0.311210
						CHANNELS 3 Zrotation Yrotation Xrotation
						JOINT LeftForeArm
						{
							OFFSET 4.983000 -0.000000 -0.000000
							CHANNELS 3 Zrotation Yrotation Xrotation
							JOINT LeftHand
							{
								OFFSET 3.483560 -0.000000 -0.000000
								CHANNELS 3 Zrotation Yrotation Xrotation
								JOINT LeftFingerBase
								{
									OFFSET 0.000000 0.000000 0.000000
									CHANNELS 3 Zrotation Yrotation Xrotation
									JOINT LeftHandIndex1
									{
										OFFSET 0.715260 -0.000000 -0.000000
										CHANNELS 3 Zrotation Yrotation Xrotation
										End Site
										{
											OFFSET 0.000000 0.000000 0.000000
										}
									}
								}
								JOINT LThumb
								{
									OFFSET 0.000000 0.000000 0.000000
									CHANNELS 3 Zrotation Yrotation Xrotation
									End Site
									{
										OFFSET 0.000000 0.000000 0.000000
									}
								}
							}
						}
					}
				}
				JOINT RightShoulder
				{
					OFFSET 0.000000 0.000000 0.000000
					CHANNELS 3 Zrotation Yrotation Xrotation
					JOINT RightArm
					{
						OFFSET -3.136600 1.374050 -0.404650
						CHANNELS 3 Zrotation Yrotation Xrotation
						JOINT RightForeArm
						{
							OFFSET -5.241900 -0.000000 -0.000000
							CHANNELS 3 Zrotation Yrotation Xrotation
							JOINT RightHand
							{
								OFFSET -3.444170 -0.000000 -0.000000
								CHANNELS 3 Zrotation Yrotation Xrotation
								JOINT RightFingerBase
								{
									OFFSET 0.000000 0.000000 0.000000
									CHANNELS 3 Zrotation Yrotation Xrotation
									JOINT RightHandIndex1
									{
										OFFSET -0.622530 -0.000000 -0.000000
										CHANNELS 3 Zrotation Yrotation Xrotation
										End Site
										{
											OFFSET 0.000000 0.000000 0.000000
										}
									}
								}
								JOINT RThumb
								{
									OFFSET 0.000000 0.000000 0.000000
									CHANNELS 3 Zrotation Yrotation Xrotation
									End Site
									{
										OFFSET 0.000000 0.000000 0.000000
									}
								}
							}
						}
					}
				}
			}
		}
	}
}
MOTION
Frames: 12
Frame Time: 0.033333
-0.032007 17.376472 -0.032007 -0.042410 -23.065645 4.520135 -0.307187 11.191044 15.296608 -14.411632 -26.983542 -12.846852 35.759585 -30.046404 -23.355263 -21.227601 0.778640 83.245061 0.000000 0.000000 0.000000 1.794221 -29.650543 -14.712253 49.040950 10.543517 -0.864908 -26.936376 3.428172 36.103188 -0.033771 9.672305 -18.069544 0.000000 0.000000 0.000000 -2.823883 6.040859 5.653411 -4.596860 5.106558 13.029216 6.652914 5.051495 -14.913753 12.141149 -0.684960 -10.337592 -1.483958 -0.014276 -9.150840 0.000000 0.000000 0.000000 -3.242426 14.004932 17.275438 -78.561064 -5.683772 -28.229281 -143.285002 -69.144479 179.350954 6.536725 -5.450407 -0.334170 6.616206 -5.404103 -0.000000 0.000000 0.000000 0.000000 0.000000 0.000000 0.000000 -0.909049 -14.528464 2.683938 56.873211 12.607911 16.915567 49.306466 57.369002 0.282607 2.071609 8.691544 0.140833 2.071204 8.695914 0.000000 0.000000 0.000000 0.000000 0.000000 0.000000 0.000000 
-0.028723 17.402341 0.120355 0.075793 -22.816511 4.311084 0.878036 10.791015 14.634452 -16.738271 -27.094836 -10.986818 35.589109 -30.318777 -22.542642 -20.888200 0.183088 82.108856 0.000000 0.000000 0.000000 0.986289 -28.840271 -14.988543 48.036207 9.596100 -0.425717 -25.473989 2.430729 36.016515 0.027271 9.698048 -19.450525 0.000000 0.000000 0.000000 -3.052660 5.919796 6.395383 -4.560696 4.995863 11.848833 6.641757 4.918697 -14.108770 11.952817 -0.739201 -10.005226 -1.595473 -0.036114 -8.522890 0.000000 0.000000 0.000000 -2.847355 13.662939 17.458219 -78.785993 -5.815331 -28.143132 -143.347688 -69.368817 179.389831 6.525855 -5.568043 -0.314066 6.601370 -5.524313 -0.000000 0.000000 0.000000 0.000000 0.000000 0.000000 0.000000 -1.173739 -14.372608 2.665096 57.424370 12.671130 17.131895 49.431462 58.218364 0.269348 1.979403 8.383726 0.134240 1.978775 8.387872 0.000000 0.000000 0.000000 0.000000 0.000000 0.000000 0.000000 
-0.023170 17.430029 0.272104 0.176666 -22.497077 4.096666 2.014969 10.387699 13.918022 -18.991854 -27.066700 -9.150595 35.219986 -30.529552 -21.725361 -20.395246 -0.279588 81.071573 0.000000 0.000000 0.000000 0.195952 -27.929936 -15.243101 46.943535 8.633790 0.011019 -23.920707 1.385271 35.839545 0.102781 9.675975 -20.760848 0.000000 0.000000 0.000000 -3.261257 5.778029 7.139510 -4.493308 4.866836 10.707996 6.614782 4.770077 -13.319057 11.749313 -0.789912 -9.685888 -1.693569 -0.054876 -7.894986 0.000000 0.000000 0.000000 -2.447812 13.309540 17.637525 -79.011448 -5.949816 -28.051516 -143.412111 -69.597200 179.429869 6.506572 -5.684977 -0.293385 6.578020 -5.643835 -0.000000 0.000000 0.000000 0.000000 0.000000 0.000000 0.000000 -1.449402 -14.227599 2.636225 57.982076 12.734150 17.354611 49.546908 59.075127 0.256662 1.889434 8.067726 0.127936 1.888658 8.071646 0.000000 0.000000 0.000000 0.000000 0.000000 0.000000 0.000000 
-0.015394 17.459089 0.422837 0.106599 -21.362226 3.488793 3.269773 9.746592 13.204588 -21.265073 -26.768209 -6.948454 34.503142 -30.690596 -21.109303 -19.660420 -0.498571 80.411848 0.000000 0.000000 0.000000 -1.042084 -25.793242 -16.554602 45.381876 6.079086 1.670418 -21.571703 -0.564466 34.801735 0.473901 9.024184 -22.279941 0.000000 0.000000 0.000000 -3.244685 5.257863 8.510327 -4.310930 4.388605 9.559337 6.200953 4.339344 -12.862206 11.891534 -0.819844 -9.264475 -1.615122 -0.046351 -7.271856 0.000000 0.000000 0.000000 -1.599250 13.176617 17.891207 -79.212806 -5.948070 -27.944310 -143.386726 -69.789916 179.472721 6.481762 -5.806327 -0.271291 6.548884 -5.767808 -0.000000 0.000000 0.000000 0.000000 0.000000 0.000000 0.000000 -2.994318 -14.883654 1.709252 59.584641 14.631911 12.267708 54.346438 49.122687 0.168022 1.931611 7.808884 0.083628 1.927626 7.812162 0.000000 0.000000 0.000000 0.000000 0.000000 0.000000 0.000000 
-0.005961 17.489112 0.572190 0.001750 -20.019879 2.844840 4.449082 9.010483 12.400184 -23.404732 -26.306151 -4.745059 33.609115 -30.792862 -20.493844 -18.822130 -0.592882 79.849836 0.000000 0.000000 0.000000 -2.269226 -23.291170 -17.918134 43.553699 3.328932 3.490377 -18.895433 -2.640337 33.399472 0.848607 8.277530 -23.685365 0.000000 0.000000 0.000000 -3.180347 4.666367 9.941173 -4.096795 3.848469 8.461488 5.816441 3.868057 -12.687307 11.999707 -0.856623 -8.662367 -1.552527 -0.042755 -6.588099 0.000000 0.000000 0.000000 -0.724992 13.013319 18.275835 -79.426864 -5.824160 -27.831381 -143.369672 -69.984133 179.516874 6.448978 -5.927411 -0.248549 6.511661 -5.891538 -0.000000 0.000000 0.000000 0.000000 0.000000 0.000000 0.000000 -4.515960 -15.782391 0.245105 60.816687 17.087162 7.610064 57.419048 36.937580 0.070491 1.807707 7.260436 0.034915 1.801102 7.263162 0.000000 0.000000 0.000000 0.000000 0.000000 0.000000 0.000000 
0.005571 17.519597 0.720344 -0.125075 -18.747571 2.356101 5.495188 8.282232 11.523075 -25.287017 -25.786864 -2.774215 32.616848 -30.833528 -19.807685 -17.956098 -0.630073 79.259858 0.000000 0.000000 0.000000 -3.302551 -20.865412 -18.956241 41.599620 0.896029 5.051406 -16.045108 -4.535122 31.813376 1.129907 7.675850 -24.971666 0.000000 0.000000 0.000000 -3.200391 4.129948 11.236282 -3.652944 3.377810 7.177362 5.485797 3.463005 -12.325829 11.883346 -0.891378 -7.980524 -1.540529 -0.045989 -5.953055 0.000000 0.000000 0.000000 -0.083096 12.674578 18.670120 -79.638478 -5.717211 -27.761203 -143.388142 -70.200082 179.560553 6.409456 -6.043012 -0.226060 6.467725 -6.009750 0.000000 0.000000 0.000000 0.000000 0.000000 0.000000 0.000000 -5.500349 -16.368983 -0.964394 61.614991 18.862563 5.486897 58.563087 29.005661 0.013572 1.582107 6.376211 0.006548 1.575439 6.378472 0.000000 0.000000 0.000000 0.000000 0.000000 0.000000 0.000000 
0.018812 17.550238 0.867011 -0.242684 -17.360994 1.863029 6.437105 7.502128 10.561874 -27.030669 -25.139435 -0.856026 31.485779 -30.801738 -19.112615 -17.017215 -0.560700 78.747198 0.000000 0.000000 0.000000 -4.246375 -18.238040 -19.925859 39.424651 -1.562071 6.685426 -12.964976 -6.378183 29.924069 1.402959 7.030924 -26.095830 0.000000 0.000000 0.000000 -3.187365 3.573973 12.514604 -3.210420 2.900118 5.922198 5.163489 3.046796 -12.134801 11.717329 -0.927733 -7.146164 -1.539434 -0.052590 -5.282382 0.000000 0.000000 0.000000 0.565747 12.224679 19.168660 -79.855118 -5.546194 -27.703051 -143.419342 -70.429417 179.604873 6.361895 -6.156252 -0.203261 6.415698 -6.125596 0.000000 0.000000 0.000000 0.000000 0.000000 0.000000 0.000000 -6.432519 -17.040989 -2.560821 62.443837 20.911106 3.972748 59.248586 20.099495 -0.025896 1.355231 5.332453 -0.013093 1.349696 5.334256 0.000000 0.000000 0.000000 0.000000 0.000000 0.000000 0.000000 
0.032947 17.580682 1.012174 -0.331614 -15.876873 1.402472 7.256671 6.664380 9.498600 -28.628454 -24.383346 0.985447 30.242254 -30.694031 -18.396200 -16.024688 -0.400421 78.290878 0.000000 0.000000 0.000000 -5.075955 -15.477701 -20.797113 37.052918 -3.984681 8.354053 -9.695418 -8.107309 27.767394 1.663405 6.350643 -27.039407 0.000000 0.000000 0.000000 -3.137453 3.063887 13.817897 -2.690278 2.503513 4.446548 4.603940 2.676762 -11.701804 10.820349 -0.626131 -5.512753 -0.269825 0.157794 -6.287343 0.000000 0.000000 0.000000 1.251154 11.429240 19.711452 -80.014167 -5.535281 -27.667646 -143.506529 -70.691463 179.649513 6.297851 -6.260873 -0.180318 6.347172 -6.232827 0.000000 0.000000 0.000000 0.000000 0.000000 0.000000 0.000000 -6.888278 -17.958991 -4.283502 63.328882 22.801258 3.142210 60.905346 15.494734 0.391023 -1.838253 -8.212410 0.196063 -1.863836 -8.213508 -0.000000 0.000000 0.000000 0.000000 0.000000 0.000000 0.000000 
0.048003 17.610650 1.155581 -0.387920 -14.338747 0.958031 7.955948 5.794419 8.366563 -30.078278 -23.531876 2.742615 28.906814 -30.507381 -17.659445 -14.989823 -0.159104 77.883175 0.000000 0.000000 0.000000 -5.765804 -12.645995 -21.511946 34.517283 -6.322938 10.040298 -6.306648 -9.656697 25.393906 1.909318 5.645506 -27.784766 0.000000 0.000000 0.000000 -3.072276 2.598853 15.041737 -2.179109 2.163225 3.057873 4.122761 2.350988 -11.471406 9.869519 -0.331399 -3.782625 0.873796 0.358460 -7.173841 0.000000 0.000000 0.000000 1.851516 10.431562 20.367462 -80.177887 -5.484520 -27.627067 -143.601156 -70.973538 179.695244 6.222556 -6.361700 -0.156838 6.267291 -6.336287 0.000000 0.000000 0.000000 0.000000 0.000000 0.000000 0.000000 -7.113911 -18.841346 -6.327698 64.467552 24.805352 3.125546 61.868867 10.258535 1.663063 -4.286618 -21.256085 0.847270 -4.555503 -21.251306 0.000000 0.000000 0.000000 0.000000 0.000000 0.000000 0.000000 
0.064332 17.640601 1.298326 -0.463298 -12.794034 0.835343 8.423066 4.945014 7.504076 -30.928366 -23.189123 3.737563 27.488621 -30.403793 -16.612713 -14.121734 -0.179775 76.997409 0.000000 0.000000 0.000000 -6.461653 -9.681763 -21.375117 30.936079 -8.782074 11.503547 -0.375915 -11.083695 21.042267 2.077644 5.219737 -29.208947 0.000000 0.000000 0.000000 -2.803364 2.092176 15.362855 -2.005597 1.771172 2.898493 4.020760 1.951954 -11.202877 9.685642 -0.281452 -3.642531 1.064794 0.402550 -7.563054 0.000000 0.000000 0.000000 1.820851 10.029054 20.481847 -80.269179 -5.504504 -27.413184 -143.617071 -71.124094 179.785267 5.927911 -6.392943 -0.110743 5.963163 -6.372933 0.000000 0.000000 0.000000 0.000000 0.000000 0.000000 0.000000 -7.119890 -19.121674 -6.045987 64.258401 24.468800 3.295157 63.316446 13.452179 1.376721 -3.811006 -19.198037 0.699075 -4.015023 -19.195315 0.000000 0.000000 0.000000 0.000000 0.000000 0.000000 0.000000 
0.080464 17.669723 1.439067 -0.394247 -11.253561 0.845568 8.721465 4.080044 6.533164 -31.705921 -22.811547 4.587382 26.004307 -30.203933 -15.521644 -13.221747 -0.142069 76.108207 0.000000 0.000000 0.000000 -6.762876 -6.672234 -20.827856 27.001151 -10.858441 12.766506 5.835122 -11.975875 16.429690 2.315419 4.563287 -30.243297 0.000000 0.000000 0.000000 -2.650901 1.609045 15.502027 -1.861035 1.375649 2.742136 3.931211 1.540885 -10.895895 9.515318 -0.236400 -3.548089 1.224544 0.442502 -7.942333 0.000000 0.000000 0.000000 1.773701 9.606116 20.577162 -80.354680 -5.539552 -27.195901 -143.633789 -71.279985 179.876854 5.604019 -6.408859 -0.063924 5.629738 -6.394203 0.000000 0.000000 0.000000 0.000000 0.000000 0.000000 0.000000 -7.110933 -19.372357 -5.671890 64.100748 23.999429 3.566297 64.667681 17.028751 1.047365 -3.218535 -16.375985 0.529671 -3.353385 -16.375220 0.000000 0.000000 0.000000 0.000000 0.000000 0.000000 0.000000 
0.096375 17.697889 1.577744 -0.192755 -10.674840 0.752580 8.935012 3.794958 5.961764 -32.411888 -22.394346 5.139164 24.538311 -29.862247 -14.393990 -12.301407 -0.065735 75.162942 0.000000 0.000000 0.000000 -6.672604 -5.541898 -20.559380 25.555685 -11.229726 13.103206 6.980273 -12.323017 15.961139 2.367831 4.326925 -30.308930 0.000000 0.000000 0.000000 -2.715913 1.493889 15.605632 -1.813408 1.284721 2.603120 3.862651 1.383519 -10.135322 9.375950 -0.206878 -3.774282 1.306537 0.477395 -8.406128 0.000000 0.000000 0.000000 1.644290 9.253752 20.466407 -80.428297 -5.769736 -27.005193 -143.612722 -71.426830 179.969774 5.257820 -6.411126 -0.016494 5.273981 -6.401748 0.000000 0.000000 0.000000 0.000000 0.000000 0.000000 0.000000 -6.970922 -19.160409 -4.305190 63.920652 22.381034 4.767245 66.257964 25.189452 0.137323 -0.576089 -3.501908 0.068690 -0.579123 -3.502809 0.000000 0.000000 0.000000 0.000000 0.000000 0.000000 0.000000 
